# Blender v2.80 (sub 75) OBJ File: 'box_source.blend'
# www.blender.org
mtllib box_colored.mtl
o box_colored_Cube.010
v 1.000000 -1.000000 -1.000000
v 1.000000 -1.000000 1.000000
v -1.000000 -1.000000 -1.000000
v -1.000000 -1.000000 1.000000
v 1.000000 1.000000 -1.000000
v -1.000000 1.000000 -1.000000
v -1.000000 1.000000 1.000000
v 1.000000 1.000000 1.000000
v -0.751979 -0.751979 -1.000000
v -0.751979 0.751979 -1.000000
v 0.751979 0.751979 -1.000000
v 0.751979 -0.751979 -1.000000
v 1.000000 -0.751979 -0.751979
v 1.000000 0.751979 -0.751979
v 1.000000 0.751979 0.751979
v 1.000000 -0.751979 0.751979
v 0.751979 -0.751979 1.000000
v 0.751979 0.751979 1.000000
v -0.751979 0.751979 1.000000
v -0.751979 -0.751979 1.000000
v -0.751979 -1.000000 -0.751979
v 0.751979 -1.000000 -0.751979
v 0.751979 -1.000000 0.751979
v -0.751979 -1.000000 0.751979
v -1.000000 -0.751979 0.751979
v -1.000000 0.751979 0.751979
v -1.000000 0.751979 -0.751979
v -1.000000 -0.751979 -0.751979
v 0.751979 1.000000 -0.751979
v -0.751979 1.000000 -0.751979
v -0.751979 1.000000 0.751979
v 0.751979 1.000000 0.751979
v -0.662165 -0.662165 -0.880563
v -0.662165 0.662165 -0.880563
v 0.662165 -0.662165 -0.880563
v 0.662165 0.662165 -0.880563
v 0.880563 0.662165 -0.662165
v 0.880563 -0.662165 -0.662165
v 0.880563 -0.662165 0.662165
v 0.880563 0.662165 0.662165
v 0.662165 -0.662165 0.880563
v 0.662165 0.662165 0.880563
v -0.662165 -0.662165 0.880563
v -0.662165 0.662165 0.880563
v 0.662165 -0.880563 -0.662165
v -0.662165 -0.880563 -0.662165
v -0.662165 -0.880563 0.662165
v 0.662165 -0.880563 0.662165
v -0.880563 -0.662165 0.662165
v -0.880563 0.662165 0.662165
v -0.880563 -0.662165 -0.662165
v -0.880563 0.662165 -0.662165
v -0.662165 0.880563 -0.662165
v 0.662165 0.880563 -0.662165
v 0.662165 0.880563 0.662165
v -0.662165 0.880563 0.662165
vt 0.043947 0.283018
vt 0.043214 0.046976
vt 0.066700 0.068139
vt 0.065190 0.259368
vt 0.364513 0.371556
vt 0.600603 0.368096
vt 0.579360 0.391745
vt 0.387999 0.392719
vt 0.921901 0.368096
vt 0.922634 0.604138
vt 0.899148 0.582975
vt 0.900659 0.391745
vt 0.601336 0.279557
vt 0.365246 0.283018
vt 0.386488 0.259368
vt 0.577850 0.258395
vt 0.601336 0.604138
vt 0.577850 0.582975
vt 0.364513 0.046976
vt 0.387999 0.068139
vt 0.327414 0.320418
vt 0.327414 0.009317
vt 0.638435 0.006115
vt 0.600603 0.043515
vt 0.638435 0.317216
vt 0.638435 0.330696
vt 0.638435 0.641797
vt 0.327414 0.644998
vt 0.365246 0.607598
vt 0.327414 0.333897
vt 0.959733 0.330696
vt 0.959733 0.641797
vt 0.648712 0.644998
vt 0.686545 0.607598
vt 0.648712 0.333897
vt 0.685811 0.371556
vt 0.006115 0.320418
vt 0.006115 0.009317
vt 0.317136 0.006115
vt 0.279304 0.043515
vt 0.317136 0.317216
vt 0.280037 0.279557
vt 0.959733 0.006115
vt 0.959733 0.317216
vt 0.922635 0.279557
vt 0.921901 0.043515
vt 0.648712 0.320418
vt 0.686545 0.283018
vt 0.648712 0.009317
vt 0.685811 0.046976
vt 0.006115 0.644998
vt 0.006115 0.333897
vt 0.043214 0.371556
vt 0.043948 0.607598
vt 0.317136 0.330696
vt 0.279304 0.368096
vt 0.317136 0.641797
vt 0.280037 0.604138
vt 0.579360 0.067165
vt 0.386488 0.583949
vt 0.707787 0.583949
vt 0.709297 0.392719
vt 0.258062 0.067165
vt 0.256551 0.258395
vt 0.900659 0.067165
vt 0.899148 0.258395
vt 0.707787 0.259368
vt 0.709297 0.068139
vt 0.065190 0.583949
vt 0.066700 0.392719
vt 0.258062 0.391745
vt 0.256551 0.582975
vn 0.1357 -0.9814 0.1357
vn -0.1357 -0.9814 0.1357
vn -0.3552 -0.8647 0.3552
vn 0.3552 -0.8647 0.3552
vn 0.9814 0.1357 -0.1357
vn 0.9814 0.1357 0.1357
vn 0.8647 0.3552 0.3552
vn 0.8647 0.3552 -0.3552
vn -0.1357 0.1357 0.9814
vn -0.1357 -0.1357 0.9814
vn -0.3552 -0.3552 0.8647
vn -0.3552 0.3552 0.8647
vn -0.1357 0.1357 -0.9814
vn 0.1357 0.1357 -0.9814
vn 0.3552 0.3552 -0.8647
vn -0.3552 0.3552 -0.8647
vn 0.9814 -0.1357 0.1357
vn 0.8647 -0.3552 0.3552
vn 0.1357 -0.1357 -0.9814
vn 0.3552 -0.3552 -0.8647
vn -0.5773 -0.5773 -0.5773
vn -0.5773 0.5773 -0.5773
vn 0.5773 0.5773 -0.5773
vn -0.1357 -0.1357 -0.9814
vn 0.5773 -0.5773 -0.5773
vn 0.5773 0.5773 0.5773
vn 0.9814 -0.1357 -0.1357
vn 0.5773 -0.5773 0.5773
vn -0.5773 0.5773 0.5773
vn 0.1357 -0.1357 0.9814
vn -0.5773 -0.5773 0.5773
vn 0.1357 0.1357 0.9814
vn -0.1357 -0.9814 -0.1357
vn 0.1357 -0.9814 -0.1357
vn -0.9814 -0.1357 -0.1357
vn -0.9814 0.1357 -0.1357
vn -0.9814 -0.1357 0.1357
vn -0.9814 0.1357 0.1357
vn 0.1357 0.9814 0.1357
vn -0.1357 0.9814 0.1357
vn 0.1357 0.9814 -0.1357
vn -0.1357 0.9814 -0.1357
vn -0.3552 -0.3552 -0.8647
vn 0.8647 -0.3552 -0.3552
vn 0.3552 -0.3552 0.8647
vn 0.3552 0.3552 0.8647
vn -0.3552 -0.8647 -0.3552
vn 0.3552 -0.8647 -0.3552
vn -0.8647 0.3552 -0.3552
vn -0.8647 -0.3552 -0.3552
vn -0.8647 -0.3552 0.3552
vn -0.8647 0.3552 0.3552
vn -0.3552 0.8647 0.3552
vn 0.3552 0.8647 0.3552
vn 0.3552 0.8647 -0.3552
vn -0.3552 0.8647 -0.3552
usemtl Crate_colored
s 1
f 21/1/1 22/2/2 45/3/3 46/4/4
f 16/5/5 13/6/6 38/7/7 39/8/8
f 17/9/9 18/10/10 42/11/11 41/12/12
f 12/13/13 9/14/14 33/15/15 35/16/16
f 13/6/6 14/17/17 37/18/18 38/7/7
f 9/14/14 10/19/19 34/20/20 33/15/15
f 3/21/21 6/22/22 10/19/19 9/14/14
f 6/22/22 5/23/23 11/24/24 10/19/19
f 5/23/23 1/25/25 12/13/13 11/24/24
f 1/25/25 3/21/21 9/14/14 12/13/13
f 1/26/25 5/27/23 14/17/17 13/6/6
f 5/27/23 8/28/26 15/29/27 14/17/17
f 8/28/26 2/30/28 16/5/5 15/29/27
f 2/30/28 1/26/25 13/6/6 16/5/5
f 2/31/28 8/32/26 18/10/10 17/9/9
f 8/32/26 7/33/29 19/34/30 18/10/10
f 7/33/29 4/35/31 20/36/32 19/34/30
f 4/35/31 2/31/28 17/9/9 20/36/32
f 3/37/21 1/38/25 22/2/2 21/1/1
f 1/38/25 2/39/28 23/40/33 22/2/2
f 2/39/28 4/41/31 24/42/34 23/40/33
f 4/41/31 3/37/21 21/1/1 24/42/34
f 4/43/31 7/44/29 26/45/35 25/46/36
f 7/44/29 6/47/22 27/48/37 26/45/35
f 6/47/22 3/49/21 28/50/38 27/48/37
f 3/49/21 4/43/31 25/46/36 28/50/38
f 5/51/23 6/52/22 30/53/39 29/54/40
f 6/52/22 7/55/29 31/56/41 30/53/39
f 7/55/29 8/57/26 32/58/42 31/56/41
f 8/57/26 5/51/23 29/54/40 32/58/42
f 33/15/15 34/20/20 36/59/43 35/16/16
f 38/7/7 37/18/18 40/60/44 39/8/8
f 41/12/12 42/11/11 44/61/45 43/62/46
f 46/4/4 45/3/3 48/63/47 47/64/48
f 49/65/49 50/66/50 52/67/51 51/68/52
f 54/69/53 53/70/54 56/71/55 55/72/56
f 10/19/19 11/24/24 36/59/43 34/20/20
f 20/36/32 17/9/9 41/12/12 43/62/46
f 25/46/36 26/45/35 50/66/50 49/65/49
f 14/17/17 15/29/27 40/60/44 37/18/18
f 24/42/34 21/1/1 46/4/4 47/64/48
f 29/54/40 30/53/39 53/70/54 54/69/53
f 11/24/24 12/13/13 35/16/16 36/59/43
f 18/10/10 19/34/30 44/61/45 42/11/11
f 28/50/38 25/46/36 49/65/49 51/68/52
f 15/29/27 16/5/5 39/8/8 40/60/44
f 22/2/2 23/40/33 48/63/47 45/3/3
f 32/58/42 29/54/40 54/69/53 55/72/56
f 19/34/30 20/36/32 43/62/46 44/61/45
f 26/45/35 27/48/37 52/67/51 50/66/50
f 23/40/33 24/42/34 47/64/48 48/63/47
f 30/53/39 31/56/41 56/71/55 53/70/54
f 27/48/37 28/50/38 51/68/52 52/67/51
f 31/56/41 32/58/42 55/72/56 56/71/55
